<svg width="50" height="32" viewBox="0 0 50 32" fill="none" xmlns="http://www.w3.org/2000/svg">
<path fill-rule="evenodd" clip-rule="evenodd" d="M39.8748 0C41.2559 0 42.5812 0.156571 43.8439 0.472645C45.0661 0.788607 46.1306 1.28231 47.0376 1.95328C47.9452 2.62494 48.6768 3.49572 49.2293 4.56247C49.7419 5.66841 49.9999 6.99153 50 8.53173C50 10.2701 49.7008 11.6937 49.1089 12.8C48.517 13.9057 47.7483 14.7956 46.8015 15.4671C45.8152 16.178 44.7105 16.7128 43.4875 17.0683C42.2248 17.4238 40.9408 17.7187 39.6387 17.9557C38.2581 18.2321 36.9551 18.4304 35.7322 18.5489C34.4699 18.7069 33.3649 18.9051 32.4181 19.1421C31.4715 19.4187 30.7209 19.7919 30.1686 20.2659C29.6162 20.7795 29.3401 21.5121 29.3401 22.4603C29.3402 23.5661 29.5564 24.4559 29.9904 25.1274C30.3848 25.7986 30.9192 26.3103 31.5896 26.6659C32.221 27.0214 32.9526 27.2611 33.7813 27.3797C34.5696 27.498 35.3581 27.558 36.1464 27.5581C38.2765 27.5581 40.0537 27.1429 41.474 26.3138C42.8946 25.5236 43.6629 23.9985 43.7813 21.7465H48.815C48.7361 23.6429 48.3403 25.2463 47.6301 26.5501C46.9199 27.8532 45.9714 28.8999 44.7881 29.6898C43.6047 30.519 42.2646 31.114 40.7659 31.4695C39.2272 31.825 37.5885 31.9999 35.8526 32C34.4717 32 33.1093 31.9033 31.7678 31.7058C30.3873 31.5083 29.144 31.0932 28.0395 30.4615C26.9346 29.8689 26.0466 29.0164 25.3757 27.9102C25.2348 27.6777 25.1113 27.4296 25 27.1674C24.8887 27.4296 24.7652 27.6777 24.6243 27.9102C23.9535 29.0164 23.0654 29.8689 21.9605 30.4615C20.856 31.0932 19.6127 31.5083 18.2322 31.7058C16.8907 31.9033 15.5283 32 14.1474 32C12.4115 31.9999 10.7728 31.825 9.2341 31.4695C7.73542 31.114 6.39526 30.519 5.21195 29.6898C4.02856 28.8999 3.08015 27.8533 2.36994 26.5501C1.65965 25.2463 1.26389 23.6429 1.18497 21.7465H6.21869C6.33707 23.9985 7.10543 25.5236 8.52601 26.3138C9.94633 27.1429 11.7235 27.5581 13.8536 27.5581C14.6419 27.558 15.4304 27.498 16.2187 27.3797C17.0474 27.2611 17.779 27.0214 18.4104 26.6659C19.0808 26.3103 19.6152 25.7986 20.0096 25.1274C20.4436 24.4559 20.6598 23.5661 20.6599 22.4603C20.6599 21.5121 20.3838 20.7795 19.8314 20.2659C19.2791 19.7919 18.5286 19.4187 17.5819 19.1421C16.6351 18.9051 15.5301 18.7069 14.2678 18.5489C13.0449 18.4304 11.742 18.2321 10.3613 17.9557C9.05917 17.7187 7.77518 17.4238 6.51252 17.0683C5.28951 16.7128 4.18481 16.178 3.19846 15.4671C2.25173 14.7956 1.48296 13.9057 0.891137 12.8C0.299229 11.6937 0 10.2701 0 8.53173C6.60842e-05 6.99154 0.258072 5.66841 0.770713 4.56247C1.32316 3.49572 2.05484 2.62494 2.96243 1.95328C3.86941 1.2823 4.93391 0.788613 6.15607 0.472645C7.41881 0.156571 8.74412 0 10.1252 0C12.2548 0.00020178 14.2262 0.355289 16.0405 1.06586C17.8946 1.81635 19.5151 3.01947 20.896 4.67822C20.8961 3.77465 21.0106 3.00689 21.2331 2.37287V0.766843C22.1009 0.254142 23.3038 0.000127844 24.841 0C24.8941 0 24.9478 0.00846323 25 0.00964582C25.0523 0.0084622 25.1058 0 25.159 0C26.6962 0.000120261 27.8991 0.254154 28.7669 0.766843V2.37287C28.9894 3.00689 29.1039 3.77464 29.104 4.67822C30.4849 3.01946 32.1053 1.81636 33.9595 1.06586C35.7738 0.355281 37.7452 0.000209234 39.8748 0ZM11.2476 4.38402C10.4586 4.38405 9.70823 4.46234 8.99807 4.62035C8.28802 4.77839 7.65731 5.03652 7.10501 5.39201C6.59285 5.74704 6.15925 6.20012 5.80443 6.75207C5.48875 7.34471 5.32755 8.05893 5.32755 8.88862C5.32766 10.1517 5.60451 11.139 6.15607 11.8499C6.74789 12.6005 7.49818 13.1766 8.40559 13.5717C9.31293 13.9667 10.3396 14.2431 11.4836 14.4012C12.628 14.5988 13.7554 14.7553 14.8603 14.8739C16.0041 15.0318 17.0911 15.2117 18.1166 15.4092C19.1413 15.6462 19.9713 16.0014 20.6021 16.4751V11.3194C20.6021 10.6082 20.4226 9.83407 20.0674 9.00437C19.7123 8.21482 19.1596 7.46272 18.4104 6.75207C17.6609 6.08089 16.6937 5.50898 15.5106 5.03512C14.3268 4.60051 12.9049 4.38402 11.2476 4.38402ZM38.7524 4.38402C37.0951 4.38402 35.6732 4.60051 34.4894 5.03512C33.3063 5.50898 32.3391 6.08089 31.5896 6.75207C30.8404 7.46273 30.2877 8.21481 29.9326 9.00437C29.5774 9.83407 29.3979 10.6082 29.3979 11.3194V16.4751C30.0292 16.0009 30.8623 15.6463 31.8882 15.4092C32.9132 15.2119 33.9967 15.0317 35.1397 14.8739C36.2446 14.7553 37.372 14.5988 38.5164 14.4012C39.6604 14.2431 40.6871 13.9667 41.5944 13.5717C42.5019 13.1766 43.2521 12.6005 43.8439 11.8499C44.3955 11.139 44.6723 10.1517 44.6724 8.88862C44.6724 8.05893 44.5113 7.34471 44.1956 6.75207C43.8407 6.20012 43.4072 5.74704 42.895 5.39201C42.3427 5.03651 41.712 4.77839 41.0019 4.62035C40.2918 4.46234 39.5415 4.38405 38.7524 4.38402Z" fill="#22ff00"/>
</svg>
