<svg width="45" height="9" viewBox="0 0 45 9" fill="none" xmlns="http://www.w3.org/2000/svg">
<path d="M-1.02371e-05 2.36399H1.61999V3.22799H1.65599C1.87199 2.86799 2.15199 2.60799 2.49599 2.44799C2.83999 2.27999 3.19199 2.19599 3.55199 2.19599C4.00799 2.19599 4.37999 2.25999 4.66799 2.38799C4.96399 2.50799 5.19599 2.67999 5.36399 2.90399C5.53199 3.11999 5.64799 3.38799 5.71199 3.70799C5.78399 4.01999 5.81999 4.36799 5.81999 4.75199V8.56799H4.11599V5.06399C4.11599 4.55199 4.03599 4.17199 3.87599 3.92399C3.71599 3.66799 3.43199 3.53999 3.02399 3.53999C2.55999 3.53999 2.22399 3.67999 2.01599 3.95999C1.80799 4.23199 1.70399 4.68399 1.70399 5.31599V8.56799H-1.02371e-05V2.36399ZM11.2893 4.79999C11.2093 4.36799 11.0653 4.03999 10.8573 3.81599C10.6573 3.59199 10.3493 3.47999 9.93327 3.47999C9.66127 3.47999 9.43327 3.52799 9.24927 3.62399C9.07327 3.71199 8.92927 3.82399 8.81727 3.95999C8.71327 4.09599 8.63727 4.23999 8.58927 4.39199C8.54927 4.54399 8.52527 4.67999 8.51727 4.79999H11.2893ZM8.51727 5.87999C8.54127 6.43199 8.68127 6.83199 8.93727 7.07999C9.19327 7.32799 9.56127 7.45199 10.0413 7.45199C10.3853 7.45199 10.6813 7.36799 10.9293 7.19999C11.1773 7.02399 11.3293 6.83999 11.3853 6.64799H12.8853C12.6453 7.39199 12.2773 7.92399 11.7813 8.24399C11.2853 8.56399 10.6853 8.72399 9.98127 8.72399C9.49327 8.72399 9.05327 8.64799 8.66127 8.49599C8.26927 8.33599 7.93727 8.11199 7.66527 7.82399C7.39327 7.53599 7.18127 7.19199 7.02927 6.79199C6.88527 6.39199 6.81327 5.95199 6.81327 5.47199C6.81327 5.00799 6.88927 4.57599 7.04127 4.17599C7.19327 3.77599 7.40927 3.43199 7.68927 3.14399C7.96927 2.84799 8.30127 2.61599 8.68527 2.44799C9.07727 2.27999 9.50927 2.19599 9.98127 2.19599C10.5093 2.19599 10.9693 2.29999 11.3613 2.50799C11.7533 2.70799 12.0733 2.97999 12.3213 3.32399C12.5773 3.66799 12.7613 4.05999 12.8733 4.49999C12.9853 4.93999 13.0253 5.39999 12.9933 5.87999H8.51727ZM14.0039 2.36399H15.6239V3.51599H15.6479C15.7279 3.32399 15.8359 3.14799 15.9719 2.98799C16.1079 2.81999 16.2639 2.67999 16.4399 2.56799C16.6159 2.44799 16.8039 2.35599 17.0039 2.29199C17.2039 2.22799 17.4119 2.19599 17.6279 2.19599C17.7399 2.19599 17.8639 2.21599 17.9999 2.25599V3.83999C17.9199 3.82399 17.8239 3.81199 17.7119 3.80399C17.5999 3.78799 17.4919 3.77999 17.3879 3.77999C17.0759 3.77999 16.8119 3.83199 16.5959 3.93599C16.3799 4.03999 16.2039 4.18399 16.0679 4.36799C15.9399 4.54399 15.8479 4.75199 15.7919 4.99199C15.7359 5.23199 15.7079 5.49199 15.7079 5.77199V8.56799H14.0039V2.36399ZM20.828 2.36399H22.076V3.50399H20.828V6.57599C20.828 6.86399 20.876 7.05599 20.972 7.15199C21.068 7.24799 21.26 7.29599 21.548 7.29599C21.644 7.29599 21.736 7.29199 21.824 7.28399C21.912 7.27599 21.996 7.26399 22.076 7.24799V8.56799C21.932 8.59199 21.772 8.60799 21.596 8.61599C21.42 8.62399 21.248 8.62799 21.08 8.62799C20.816 8.62799 20.564 8.60799 20.324 8.56799C20.092 8.53599 19.884 8.46799 19.7 8.36399C19.524 8.25999 19.384 8.11199 19.28 7.91999C19.176 7.72799 19.124 7.47599 19.124 7.16399V3.50399H18.092V2.36399H19.124V0.503993H20.828V2.36399ZM24.6387 1.40399H22.9347V-7.39098e-06H24.6387V1.40399ZM22.9347 2.36399H24.6387V8.56799H22.9347V2.36399ZM25.9085 4.27199C25.9325 3.87199 26.0325 3.53999 26.2085 3.27599C26.3845 3.01199 26.6085 2.79999 26.8805 2.63999C27.1525 2.47999 27.4565 2.36799 27.7925 2.30399C28.1365 2.23199 28.4805 2.19599 28.8245 2.19599C29.1365 2.19599 29.4525 2.21999 29.7725 2.26799C30.0925 2.30799 30.3845 2.39199 30.6485 2.51999C30.9125 2.64799 31.1285 2.82799 31.2965 3.05999C31.4645 3.28399 31.5485 3.58399 31.5485 3.95999V7.18799C31.5485 7.46799 31.5645 7.73599 31.5965 7.99199C31.6285 8.24799 31.6845 8.43999 31.7645 8.56799H30.0365C30.0045 8.47199 29.9765 8.37599 29.9525 8.27999C29.9365 8.17599 29.9245 8.07199 29.9165 7.96799C29.6445 8.24799 29.3245 8.44399 28.9565 8.55599C28.5885 8.66799 28.2125 8.72399 27.8285 8.72399C27.5325 8.72399 27.2565 8.68799 27.0005 8.61599C26.7445 8.54399 26.5205 8.43199 26.3285 8.27999C26.1365 8.12799 25.9845 7.93599 25.8725 7.70399C25.7685 7.47199 25.7165 7.19599 25.7165 6.87599C25.7165 6.52399 25.7765 6.23599 25.8965 6.01199C26.0245 5.77999 26.1845 5.59599 26.3765 5.45999C26.5765 5.32399 26.8005 5.22399 27.0485 5.15999C27.3045 5.08799 27.5605 5.03199 27.8165 4.99199C28.0725 4.95199 28.3245 4.91999 28.5725 4.89599C28.8205 4.87199 29.0405 4.83599 29.2325 4.78799C29.4245 4.73999 29.5765 4.67199 29.6885 4.58399C29.8005 4.48799 29.8525 4.35199 29.8445 4.17599C29.8445 3.99199 29.8125 3.84799 29.7485 3.74399C29.6925 3.63199 29.6125 3.54799 29.5085 3.49199C29.4125 3.42799 29.2965 3.38799 29.1605 3.37199C29.0325 3.34799 28.8925 3.33599 28.7405 3.33599C28.4045 3.33599 28.1405 3.40799 27.9485 3.55199C27.7565 3.69599 27.6445 3.93599 27.6125 4.27199H25.9085ZM29.8445 5.53199C29.7725 5.59599 29.6805 5.64799 29.5685 5.68799C29.4645 5.71999 29.3485 5.74799 29.2205 5.77199C29.1005 5.79599 28.9725 5.81599 28.8365 5.83199C28.7005 5.84799 28.5645 5.86799 28.4285 5.89199C28.3005 5.91599 28.1725 5.94799 28.0445 5.98799C27.9245 6.02799 27.8165 6.08399 27.7205 6.15599C27.6325 6.21999 27.5605 6.30399 27.5045 6.40799C27.4485 6.51199 27.4205 6.64399 27.4205 6.80399C27.4205 6.95599 27.4485 7.08399 27.5045 7.18799C27.5605 7.29199 27.6365 7.37599 27.7325 7.43999C27.8285 7.49599 27.9405 7.53599 28.0685 7.55999C28.1965 7.58399 28.3285 7.59599 28.4645 7.59599C28.8005 7.59599 29.0605 7.53999 29.2445 7.42799C29.4285 7.31599 29.5645 7.18399 29.6525 7.03199C29.7405 6.87199 29.7925 6.71199 29.8085 6.55199C29.8325 6.39199 29.8445 6.26399 29.8445 6.16799V5.53199ZM32.9431 6.71999H34.8271V8.56799H32.9431V6.71999ZM36.1389 4.27199C36.1629 3.87199 36.2629 3.53999 36.4389 3.27599C36.6149 3.01199 36.8389 2.79999 37.1109 2.63999C37.3829 2.47999 37.6869 2.36799 38.0229 2.30399C38.3669 2.23199 38.7109 2.19599 39.0549 2.19599C39.3669 2.19599 39.6829 2.21999 40.0029 2.26799C40.3229 2.30799 40.6149 2.39199 40.8789 2.51999C41.1429 2.64799 41.3589 2.82799 41.5269 3.05999C41.6949 3.28399 41.7789 3.58399 41.7789 3.95999V7.18799C41.7789 7.46799 41.7949 7.73599 41.8269 7.99199C41.8589 8.24799 41.9149 8.43999 41.9949 8.56799H40.2669C40.2349 8.47199 40.2069 8.37599 40.1829 8.27999C40.1669 8.17599 40.1549 8.07199 40.1469 7.96799C39.8749 8.24799 39.5549 8.44399 39.1869 8.55599C38.8189 8.66799 38.4429 8.72399 38.0589 8.72399C37.7629 8.72399 37.4869 8.68799 37.2309 8.61599C36.9749 8.54399 36.7509 8.43199 36.5589 8.27999C36.3669 8.12799 36.2149 7.93599 36.1029 7.70399C35.9989 7.47199 35.9469 7.19599 35.9469 6.87599C35.9469 6.52399 36.0069 6.23599 36.1269 6.01199C36.2549 5.77999 36.4149 5.59599 36.6069 5.45999C36.8069 5.32399 37.0309 5.22399 37.2789 5.15999C37.5349 5.08799 37.7909 5.03199 38.0469 4.99199C38.3029 4.95199 38.5549 4.91999 38.8029 4.89599C39.0509 4.87199 39.2709 4.83599 39.4629 4.78799C39.6549 4.73999 39.8069 4.67199 39.9189 4.58399C40.0309 4.48799 40.0829 4.35199 40.0749 4.17599C40.0749 3.99199 40.0429 3.84799 39.9789 3.74399C39.9229 3.63199 39.8429 3.54799 39.7389 3.49199C39.6429 3.42799 39.5269 3.38799 39.3909 3.37199C39.2629 3.34799 39.1229 3.33599 38.9709 3.33599C38.6349 3.33599 38.3709 3.40799 38.1789 3.55199C37.9869 3.69599 37.8749 3.93599 37.8429 4.27199H36.1389ZM40.0749 5.53199C40.0029 5.59599 39.9109 5.64799 39.7989 5.68799C39.6949 5.71999 39.5789 5.74799 39.4509 5.77199C39.3309 5.79599 39.2029 5.81599 39.0669 5.83199C38.9309 5.84799 38.7949 5.86799 38.6589 5.89199C38.5309 5.91599 38.4029 5.94799 38.2749 5.98799C38.1549 6.02799 38.0469 6.08399 37.9509 6.15599C37.8629 6.21999 37.7909 6.30399 37.7349 6.40799C37.6789 6.51199 37.6509 6.64399 37.6509 6.80399C37.6509 6.95599 37.6789 7.08399 37.7349 7.18799C37.7909 7.29199 37.8669 7.37599 37.9629 7.43999C38.0589 7.49599 38.1709 7.53599 38.2989 7.55999C38.4269 7.58399 38.5589 7.59599 38.6949 7.59599C39.0309 7.59599 39.2909 7.53999 39.4749 7.42799C39.6589 7.31599 39.7949 7.18399 39.8829 7.03199C39.9709 6.87199 40.0229 6.71199 40.0389 6.55199C40.0629 6.39199 40.0749 6.26399 40.0749 6.16799V5.53199ZM44.8536 1.40399H43.1496V-7.39098e-06H44.8536V1.40399ZM43.1496 2.36399H44.8536V8.56799H43.1496V2.36399Z" fill="black"/>
</svg>
