<svg width="50" height="36" viewBox="0 0 50 36" fill="none" xmlns="http://www.w3.org/2000/svg">
<path fill-rule="evenodd" clip-rule="evenodd" d="M32.4374 0C33.1279 0 33.7906 0.0782854 34.422 0.236323C35.033 0.394303 35.5653 0.641153 36.0188 0.976639C36.4726 1.31247 36.8384 1.74786 37.1146 2.28124C37.371 2.83421 37.5 3.49576 37.5 4.26586C37.5 5.13507 37.3504 5.84687 37.0544 6.4C36.7585 6.95286 36.3741 7.39782 35.9008 7.73353C35.4076 8.08899 34.8552 8.35639 34.2437 8.53414C33.6124 8.71191 32.9704 8.85933 32.3194 8.97785C31.629 9.11607 30.9776 9.21521 30.3661 9.27445C29.735 9.35346 29.1824 9.45257 28.7091 9.57106C28.2357 9.70933 27.8604 9.89595 27.5843 10.1329C27.3081 10.3897 27.17 10.756 27.17 11.2301C27.1701 11.7831 27.2782 12.2279 27.4952 12.5637C27.6924 12.8993 27.9596 13.1552 28.2948 13.3329C28.6105 13.5107 28.9763 13.6306 29.3907 13.6898C29.7848 13.749 30.1791 13.779 30.5732 13.7791C31.6383 13.7791 32.5268 13.5714 33.237 13.1569C33.9473 12.7618 34.3315 11.9993 34.3907 10.8732H36.9075C36.8681 11.8215 36.6702 12.6232 36.315 13.2751C35.9599 13.9266 35.4857 14.45 34.894 14.8449C34.3024 15.2595 33.6323 15.557 32.8829 15.7347C32.1136 15.9125 31.2943 16 30.4263 16C29.7358 16 29.0547 15.9517 28.3839 15.8529C27.6936 15.7542 27.072 15.5466 26.5197 15.2307C25.9673 14.9344 25.5233 14.5082 25.1879 13.9551C25.1174 13.8389 25.0557 13.7148 25 13.5837C24.9443 13.7148 24.8826 13.8389 24.8121 13.9551C24.4767 14.5082 24.0327 14.9344 23.4803 15.2307C22.928 15.5466 22.3063 15.7542 21.6161 15.8529C20.9454 15.9516 20.2642 16 19.5737 16C18.7058 16 17.8864 15.9125 17.1171 15.7347C16.3677 15.557 15.6976 15.2595 15.106 14.8449C14.5143 14.45 14.0401 13.9266 13.685 13.2751C13.3298 12.6232 13.1319 11.8215 13.0925 10.8732H15.6093C15.6685 11.9993 16.0527 12.7618 16.763 13.1569C17.4732 13.5714 18.3617 13.7791 19.4268 13.7791C19.8209 13.779 20.2152 13.749 20.6093 13.6898C21.0237 13.6306 21.3895 13.5107 21.7052 13.3329C22.0404 13.1552 22.3076 12.8993 22.5048 12.5637C22.7218 12.2279 22.8299 11.7831 22.83 11.2301C22.83 10.756 22.6919 10.3897 22.4157 10.1329C22.1396 9.89594 21.7643 9.70933 21.2909 9.57106C20.8176 9.45257 20.265 9.35346 19.6339 9.27445C19.0224 9.21521 18.371 9.11607 17.6806 8.97785C17.0296 8.85933 16.3876 8.71191 15.7563 8.53414C15.1448 8.35638 14.5924 8.089 14.0992 7.73353C13.6259 7.39782 13.2415 6.95287 12.9456 6.4C12.6496 5.84687 12.5 5.13507 12.5 4.26586C12.5 3.49577 12.629 2.8342 12.8854 2.28124C13.1616 1.74786 13.5274 1.31247 13.9812 0.976639C14.4347 0.64115 14.967 0.394306 15.578 0.236323C16.2094 0.0782854 16.8721 0 17.5626 0C18.6274 0.00010089 19.6131 0.177645 20.5202 0.532931C21.4473 0.908176 22.2575 1.50974 22.948 2.33911C22.9481 1.88733 23.0053 1.50344 23.1166 1.18644V0.383421C23.5505 0.127071 24.1519 6.39219e-05 24.9205 0C24.9471 0 24.9739 0.00423161 25 0.00482291C25.0261 0.0042311 25.0529 0 25.0795 0C25.8481 6.01306e-05 26.4495 0.127077 26.8834 0.383421V1.18644C26.9947 1.50345 27.0519 1.88732 27.052 2.33911C27.7425 1.50973 28.5527 0.908178 29.4798 0.532931C30.3869 0.177641 31.3726 0.000104617 32.4374 0ZM18.1238 2.19201C17.7293 2.19203 17.3541 2.23117 16.999 2.31017C16.644 2.3892 16.3287 2.51826 16.0525 2.69601C15.7964 2.87352 15.5796 3.10006 15.4022 3.37604C15.2444 3.67236 15.1638 4.02946 15.1638 4.44431C15.1638 5.07584 15.3023 5.56948 15.578 5.92494C15.8739 6.30023 16.2491 6.58829 16.7028 6.78583C17.1565 6.98333 17.6698 7.12157 18.2418 7.2006C18.814 7.29938 19.3777 7.37766 19.9302 7.43693C20.502 7.51592 21.0455 7.60587 21.5583 7.7046C22.0706 7.82312 22.4857 8.00069 22.8011 8.23753V5.65968C22.8011 5.3041 22.7113 4.91703 22.5337 4.50219C22.3561 4.10741 22.0798 3.73136 21.7052 3.37604C21.3305 3.04045 20.8468 2.75449 20.2553 2.51756C19.6634 2.30026 18.9525 2.19201 18.1238 2.19201ZM31.8762 2.19201C31.0475 2.19201 30.3366 2.30026 29.7447 2.51756C29.1532 2.75449 28.6695 3.04045 28.2948 3.37604C27.9202 3.73136 27.6439 4.1074 27.4663 4.50219C27.2887 4.91703 27.1989 5.3041 27.1989 5.65968V8.23753C27.5146 8.00047 27.9311 7.82312 28.4441 7.7046C28.9566 7.60594 29.4983 7.51587 30.0698 7.43693C30.6223 7.37766 31.186 7.29938 31.7582 7.2006C32.3302 7.12157 32.8435 6.98333 33.2972 6.78583C33.7509 6.58829 34.126 6.30023 34.422 5.92494C34.6978 5.56948 34.8362 5.07585 34.8362 4.44431C34.8362 4.02946 34.7556 3.67236 34.5978 3.37604C34.4204 3.10006 34.2036 2.87352 33.9475 2.69601C33.6713 2.51826 33.356 2.3892 33.001 2.31017C32.6459 2.23117 32.2707 2.19203 31.8762 2.19201Z" fill="white"/>
<path d="M0.648 26.796H2.268V27.66H2.304C2.52 27.3 2.8 27.04 3.144 26.88C3.488 26.712 3.84 26.628 4.2 26.628C4.656 26.628 5.028 26.692 5.316 26.82C5.612 26.94 5.844 27.112 6.012 27.336C6.18 27.552 6.296 27.82 6.36 28.14C6.432 28.452 6.468 28.8 6.468 29.184V33H4.764V29.496C4.764 28.984 4.684 28.604 4.524 28.356C4.364 28.1 4.08 27.972 3.672 27.972C3.208 27.972 2.872 28.112 2.664 28.392C2.456 28.664 2.352 29.116 2.352 29.748V33H0.648V26.796ZM11.9373 29.232C11.8573 28.8 11.7133 28.472 11.5053 28.248C11.3053 28.024 10.9973 27.912 10.5813 27.912C10.3093 27.912 10.0813 27.96 9.89728 28.056C9.72128 28.144 9.57728 28.256 9.46528 28.392C9.36128 28.528 9.28528 28.672 9.23728 28.824C9.19728 28.976 9.17328 29.112 9.16528 29.232H11.9373ZM9.16528 30.312C9.18928 30.864 9.32928 31.264 9.58528 31.512C9.84128 31.76 10.2093 31.884 10.6893 31.884C11.0333 31.884 11.3293 31.8 11.5773 31.632C11.8253 31.456 11.9773 31.272 12.0333 31.08H13.5333C13.2933 31.824 12.9253 32.356 12.4293 32.676C11.9333 32.996 11.3333 33.156 10.6293 33.156C10.1413 33.156 9.70128 33.08 9.30928 32.928C8.91728 32.768 8.58528 32.544 8.31328 32.256C8.04128 31.968 7.82928 31.624 7.67728 31.224C7.53328 30.824 7.46128 30.384 7.46128 29.904C7.46128 29.44 7.53728 29.008 7.68928 28.608C7.84128 28.208 8.05728 27.864 8.33728 27.576C8.61728 27.28 8.94928 27.048 9.33328 26.88C9.72528 26.712 10.1573 26.628 10.6293 26.628C11.1573 26.628 11.6173 26.732 12.0093 26.94C12.4013 27.14 12.7213 27.412 12.9693 27.756C13.2253 28.1 13.4093 28.492 13.5213 28.932C13.6333 29.372 13.6733 29.832 13.6413 30.312H9.16528ZM14.6519 26.796H16.2719V27.948H16.2959C16.3759 27.756 16.4839 27.58 16.6199 27.42C16.7559 27.252 16.9119 27.112 17.0879 27C17.2639 26.88 17.4519 26.788 17.6519 26.724C17.8519 26.66 18.0599 26.628 18.2759 26.628C18.3879 26.628 18.5119 26.648 18.6479 26.688V28.272C18.5679 28.256 18.4719 28.244 18.3599 28.236C18.2479 28.22 18.1399 28.212 18.0359 28.212C17.7239 28.212 17.4599 28.264 17.2439 28.368C17.0279 28.472 16.8519 28.616 16.7159 28.8C16.5879 28.976 16.4959 29.184 16.4399 29.424C16.3839 29.664 16.3559 29.924 16.3559 30.204V33H14.6519V26.796ZM21.476 26.796H22.724V27.936H21.476V31.008C21.476 31.296 21.524 31.488 21.62 31.584C21.716 31.68 21.908 31.728 22.196 31.728C22.292 31.728 22.384 31.724 22.472 31.716C22.56 31.708 22.644 31.696 22.724 31.68V33C22.58 33.024 22.42 33.04 22.244 33.048C22.068 33.056 21.896 33.06 21.728 33.06C21.464 33.06 21.212 33.04 20.972 33C20.74 32.968 20.532 32.9 20.348 32.796C20.172 32.692 20.032 32.544 19.928 32.352C19.824 32.16 19.772 31.908 19.772 31.596V27.936H18.74V26.796H19.772V24.936H21.476V26.796ZM25.2867 25.836H23.5827V24.432H25.2867V25.836ZM23.5827 26.796H25.2867V33H23.5827V26.796ZM26.5565 28.704C26.5805 28.304 26.6805 27.972 26.8565 27.708C27.0325 27.444 27.2565 27.232 27.5285 27.072C27.8005 26.912 28.1045 26.8 28.4405 26.736C28.7845 26.664 29.1285 26.628 29.4725 26.628C29.7845 26.628 30.1005 26.652 30.4205 26.7C30.7405 26.74 31.0325 26.824 31.2965 26.952C31.5605 27.08 31.7765 27.26 31.9445 27.492C32.1125 27.716 32.1965 28.016 32.1965 28.392V31.62C32.1965 31.9 32.2125 32.168 32.2445 32.424C32.2765 32.68 32.3325 32.872 32.4125 33H30.6845C30.6525 32.904 30.6245 32.808 30.6005 32.712C30.5845 32.608 30.5725 32.504 30.5645 32.4C30.2925 32.68 29.9725 32.876 29.6045 32.988C29.2365 33.1 28.8605 33.156 28.4765 33.156C28.1805 33.156 27.9045 33.12 27.6485 33.048C27.3925 32.976 27.1685 32.864 26.9765 32.712C26.7845 32.56 26.6325 32.368 26.5205 32.136C26.4165 31.904 26.3645 31.628 26.3645 31.308C26.3645 30.956 26.4245 30.668 26.5445 30.444C26.6725 30.212 26.8325 30.028 27.0245 29.892C27.2245 29.756 27.4485 29.656 27.6965 29.592C27.9525 29.52 28.2085 29.464 28.4645 29.424C28.7205 29.384 28.9725 29.352 29.2205 29.328C29.4685 29.304 29.6885 29.268 29.8805 29.22C30.0725 29.172 30.2245 29.104 30.3365 29.016C30.4485 28.92 30.5005 28.784 30.4925 28.608C30.4925 28.424 30.4605 28.28 30.3965 28.176C30.3405 28.064 30.2605 27.98 30.1565 27.924C30.0605 27.86 29.9445 27.82 29.8085 27.804C29.6805 27.78 29.5405 27.768 29.3885 27.768C29.0525 27.768 28.7885 27.84 28.5965 27.984C28.4045 28.128 28.2925 28.368 28.2605 28.704H26.5565ZM30.4925 29.964C30.4205 30.028 30.3285 30.08 30.2165 30.12C30.1125 30.152 29.9965 30.18 29.8685 30.204C29.7485 30.228 29.6205 30.248 29.4845 30.264C29.3485 30.28 29.2125 30.3 29.0765 30.324C28.9485 30.348 28.8205 30.38 28.6925 30.42C28.5725 30.46 28.4645 30.516 28.3685 30.588C28.2805 30.652 28.2085 30.736 28.1525 30.84C28.0965 30.944 28.0685 31.076 28.0685 31.236C28.0685 31.388 28.0965 31.516 28.1525 31.62C28.2085 31.724 28.2845 31.808 28.3805 31.872C28.4765 31.928 28.5885 31.968 28.7165 31.992C28.8445 32.016 28.9765 32.028 29.1125 32.028C29.4485 32.028 29.7085 31.972 29.8925 31.86C30.0765 31.748 30.2125 31.616 30.3005 31.464C30.3885 31.304 30.4405 31.144 30.4565 30.984C30.4805 30.824 30.4925 30.696 30.4925 30.6V29.964ZM33.5911 31.152H35.4751V33H33.5911V31.152ZM36.7869 28.704C36.8109 28.304 36.9109 27.972 37.0869 27.708C37.2629 27.444 37.4869 27.232 37.7589 27.072C38.0309 26.912 38.3349 26.8 38.6709 26.736C39.0149 26.664 39.3589 26.628 39.7029 26.628C40.0149 26.628 40.3309 26.652 40.6509 26.7C40.9709 26.74 41.2629 26.824 41.5269 26.952C41.7909 27.08 42.0069 27.26 42.1749 27.492C42.3429 27.716 42.4269 28.016 42.4269 28.392V31.62C42.4269 31.9 42.4429 32.168 42.4749 32.424C42.5069 32.68 42.5629 32.872 42.6429 33H40.9149C40.8829 32.904 40.8549 32.808 40.8309 32.712C40.8149 32.608 40.8029 32.504 40.7949 32.4C40.5229 32.68 40.2029 32.876 39.8349 32.988C39.4669 33.1 39.0909 33.156 38.7069 33.156C38.4109 33.156 38.1349 33.12 37.8789 33.048C37.6229 32.976 37.3989 32.864 37.2069 32.712C37.0149 32.56 36.8629 32.368 36.7509 32.136C36.6469 31.904 36.5949 31.628 36.5949 31.308C36.5949 30.956 36.6549 30.668 36.7749 30.444C36.9029 30.212 37.0629 30.028 37.2549 29.892C37.4549 29.756 37.6789 29.656 37.9269 29.592C38.1829 29.52 38.4389 29.464 38.6949 29.424C38.9509 29.384 39.2029 29.352 39.4509 29.328C39.6989 29.304 39.9189 29.268 40.1109 29.22C40.3029 29.172 40.4549 29.104 40.5669 29.016C40.6789 28.92 40.7309 28.784 40.7229 28.608C40.7229 28.424 40.6909 28.28 40.6269 28.176C40.5709 28.064 40.4909 27.98 40.3869 27.924C40.2909 27.86 40.1749 27.82 40.0389 27.804C39.9109 27.78 39.7709 27.768 39.6189 27.768C39.2829 27.768 39.0189 27.84 38.8269 27.984C38.6349 28.128 38.5229 28.368 38.4909 28.704H36.7869ZM40.7229 29.964C40.6509 30.028 40.5589 30.08 40.4469 30.12C40.3429 30.152 40.2269 30.18 40.0989 30.204C39.9789 30.228 39.8509 30.248 39.7149 30.264C39.5789 30.28 39.4429 30.3 39.3069 30.324C39.1789 30.348 39.0509 30.38 38.9229 30.42C38.8029 30.46 38.6949 30.516 38.5989 30.588C38.5109 30.652 38.4389 30.736 38.3829 30.84C38.3269 30.944 38.2989 31.076 38.2989 31.236C38.2989 31.388 38.3269 31.516 38.3829 31.62C38.4389 31.724 38.5149 31.808 38.6109 31.872C38.7069 31.928 38.8189 31.968 38.9469 31.992C39.0749 32.016 39.2069 32.028 39.3429 32.028C39.6789 32.028 39.9389 31.972 40.1229 31.86C40.3069 31.748 40.4429 31.616 40.5309 31.464C40.6189 31.304 40.6709 31.144 40.6869 30.984C40.7109 30.824 40.7229 30.696 40.7229 30.6V29.964ZM45.5016 25.836H43.7976V24.432H45.5016V25.836ZM43.7976 26.796H45.5016V33H43.7976V26.796Z" fill="white"/>
</svg>
