<svg width="47" height="15" viewBox="0 0 47 15" fill="none" xmlns="http://www.w3.org/2000/svg">
<path d="M0.648 5.796H2.268V6.66H2.304C2.52 6.3 2.8 6.04 3.144 5.88C3.488 5.712 3.84 5.628 4.2 5.628C4.656 5.628 5.028 5.692 5.316 5.82C5.612 5.94 5.844 6.112 6.012 6.336C6.18 6.552 6.296 6.82 6.36 7.14C6.432 7.452 6.468 7.8 6.468 8.184V12H4.764V8.496C4.764 7.984 4.684 7.604 4.524 7.356C4.364 7.1 4.08 6.972 3.672 6.972C3.208 6.972 2.872 7.112 2.664 7.392C2.456 7.664 2.352 8.116 2.352 8.748V12H0.648V5.796ZM11.9373 8.232C11.8573 7.8 11.7133 7.472 11.5053 7.248C11.3053 7.024 10.9973 6.912 10.5813 6.912C10.3093 6.912 10.0813 6.96 9.89728 7.056C9.72128 7.144 9.57728 7.256 9.46528 7.392C9.36128 7.528 9.28528 7.672 9.23728 7.824C9.19728 7.976 9.17328 8.112 9.16528 8.232H11.9373ZM9.16528 9.312C9.18928 9.864 9.32928 10.264 9.58528 10.512C9.84128 10.76 10.2093 10.884 10.6893 10.884C11.0333 10.884 11.3293 10.8 11.5773 10.632C11.8253 10.456 11.9773 10.272 12.0333 10.08H13.5333C13.2933 10.824 12.9253 11.356 12.4293 11.676C11.9333 11.996 11.3333 12.156 10.6293 12.156C10.1413 12.156 9.70128 12.08 9.30928 11.928C8.91728 11.768 8.58528 11.544 8.31328 11.256C8.04128 10.968 7.82928 10.624 7.67728 10.224C7.53328 9.824 7.46128 9.384 7.46128 8.904C7.46128 8.44 7.53728 8.008 7.68928 7.608C7.84128 7.208 8.05728 6.864 8.33728 6.576C8.61728 6.28 8.94928 6.048 9.33328 5.88C9.72528 5.712 10.1573 5.628 10.6293 5.628C11.1573 5.628 11.6173 5.732 12.0093 5.94C12.4013 6.14 12.7213 6.412 12.9693 6.756C13.2253 7.1 13.4093 7.492 13.5213 7.932C13.6333 8.372 13.6733 8.832 13.6413 9.312H9.16528ZM14.6519 5.796H16.2719V6.948H16.2959C16.3759 6.756 16.4839 6.58 16.6199 6.42C16.7559 6.252 16.9119 6.112 17.0879 6C17.2639 5.88 17.4519 5.788 17.6519 5.724C17.8519 5.66 18.0599 5.628 18.2759 5.628C18.3879 5.628 18.5119 5.648 18.6479 5.688V7.272C18.5679 7.256 18.4719 7.244 18.3599 7.236C18.2479 7.22 18.1399 7.212 18.0359 7.212C17.7239 7.212 17.4599 7.264 17.2439 7.368C17.0279 7.472 16.8519 7.616 16.7159 7.8C16.5879 7.976 16.4959 8.184 16.4399 8.424C16.3839 8.664 16.3559 8.924 16.3559 9.204V12H14.6519V5.796ZM21.476 5.796H22.724V6.936H21.476V10.008C21.476 10.296 21.524 10.488 21.62 10.584C21.716 10.68 21.908 10.728 22.196 10.728C22.292 10.728 22.384 10.724 22.472 10.716C22.56 10.708 22.644 10.696 22.724 10.68V12C22.58 12.024 22.42 12.04 22.244 12.048C22.068 12.056 21.896 12.06 21.728 12.06C21.464 12.06 21.212 12.04 20.972 12C20.74 11.968 20.532 11.9 20.348 11.796C20.172 11.692 20.032 11.544 19.928 11.352C19.824 11.16 19.772 10.908 19.772 10.596V6.936H18.74V5.796H19.772V3.936H21.476V5.796ZM25.2867 4.836H23.5827V3.432H25.2867V4.836ZM23.5827 5.796H25.2867V12H23.5827V5.796ZM26.5565 7.704C26.5805 7.304 26.6805 6.972 26.8565 6.708C27.0325 6.444 27.2565 6.232 27.5285 6.072C27.8005 5.912 28.1045 5.8 28.4405 5.736C28.7845 5.664 29.1285 5.628 29.4725 5.628C29.7845 5.628 30.1005 5.652 30.4205 5.7C30.7405 5.74 31.0325 5.824 31.2965 5.952C31.5605 6.08 31.7765 6.26 31.9445 6.492C32.1125 6.716 32.1965 7.016 32.1965 7.392V10.62C32.1965 10.9 32.2125 11.168 32.2445 11.424C32.2765 11.68 32.3325 11.872 32.4125 12H30.6845C30.6525 11.904 30.6245 11.808 30.6005 11.712C30.5845 11.608 30.5725 11.504 30.5645 11.4C30.2925 11.68 29.9725 11.876 29.6045 11.988C29.2365 12.1 28.8605 12.156 28.4765 12.156C28.1805 12.156 27.9045 12.12 27.6485 12.048C27.3925 11.976 27.1685 11.864 26.9765 11.712C26.7845 11.56 26.6325 11.368 26.5205 11.136C26.4165 10.904 26.3645 10.628 26.3645 10.308C26.3645 9.956 26.4245 9.668 26.5445 9.444C26.6725 9.212 26.8325 9.028 27.0245 8.892C27.2245 8.756 27.4485 8.656 27.6965 8.592C27.9525 8.52 28.2085 8.464 28.4645 8.424C28.7205 8.384 28.9725 8.352 29.2205 8.328C29.4685 8.304 29.6885 8.268 29.8805 8.22C30.0725 8.172 30.2245 8.104 30.3365 8.016C30.4485 7.92 30.5005 7.784 30.4925 7.608C30.4925 7.424 30.4605 7.28 30.3965 7.176C30.3405 7.064 30.2605 6.98 30.1565 6.924C30.0605 6.86 29.9445 6.82 29.8085 6.804C29.6805 6.78 29.5405 6.768 29.3885 6.768C29.0525 6.768 28.7885 6.84 28.5965 6.984C28.4045 7.128 28.2925 7.368 28.2605 7.704H26.5565ZM30.4925 8.964C30.4205 9.028 30.3285 9.08 30.2165 9.12C30.1125 9.152 29.9965 9.18 29.8685 9.204C29.7485 9.228 29.6205 9.248 29.4845 9.264C29.3485 9.28 29.2125 9.3 29.0765 9.324C28.9485 9.348 28.8205 9.38 28.6925 9.42C28.5725 9.46 28.4645 9.516 28.3685 9.588C28.2805 9.652 28.2085 9.736 28.1525 9.84C28.0965 9.944 28.0685 10.076 28.0685 10.236C28.0685 10.388 28.0965 10.516 28.1525 10.62C28.2085 10.724 28.2845 10.808 28.3805 10.872C28.4765 10.928 28.5885 10.968 28.7165 10.992C28.8445 11.016 28.9765 11.028 29.1125 11.028C29.4485 11.028 29.7085 10.972 29.8925 10.86C30.0765 10.748 30.2125 10.616 30.3005 10.464C30.3885 10.304 30.4405 10.144 30.4565 9.984C30.4805 9.824 30.4925 9.696 30.4925 9.6V8.964ZM33.5911 10.152H35.4751V12H33.5911V10.152ZM36.7869 7.704C36.8109 7.304 36.9109 6.972 37.0869 6.708C37.2629 6.444 37.4869 6.232 37.7589 6.072C38.0309 5.912 38.3349 5.8 38.6709 5.736C39.0149 5.664 39.3589 5.628 39.7029 5.628C40.0149 5.628 40.3309 5.652 40.6509 5.7C40.9709 5.74 41.2629 5.824 41.5269 5.952C41.7909 6.08 42.0069 6.26 42.1749 6.492C42.3429 6.716 42.4269 7.016 42.4269 7.392V10.62C42.4269 10.9 42.4429 11.168 42.4749 11.424C42.5069 11.68 42.5629 11.872 42.6429 12H40.9149C40.8829 11.904 40.8549 11.808 40.8309 11.712C40.8149 11.608 40.8029 11.504 40.7949 11.4C40.5229 11.68 40.2029 11.876 39.8349 11.988C39.4669 12.1 39.0909 12.156 38.7069 12.156C38.4109 12.156 38.1349 12.12 37.8789 12.048C37.6229 11.976 37.3989 11.864 37.2069 11.712C37.0149 11.56 36.8629 11.368 36.7509 11.136C36.6469 10.904 36.5949 10.628 36.5949 10.308C36.5949 9.956 36.6549 9.668 36.7749 9.444C36.9029 9.212 37.0629 9.028 37.2549 8.892C37.4549 8.756 37.6789 8.656 37.9269 8.592C38.1829 8.52 38.4389 8.464 38.6949 8.424C38.9509 8.384 39.2029 8.352 39.4509 8.328C39.6989 8.304 39.9189 8.268 40.1109 8.22C40.3029 8.172 40.4549 8.104 40.5669 8.016C40.6789 7.92 40.7309 7.784 40.7229 7.608C40.7229 7.424 40.6909 7.28 40.6269 7.176C40.5709 7.064 40.4909 6.98 40.3869 6.924C40.2909 6.86 40.1749 6.82 40.0389 6.804C39.9109 6.78 39.7709 6.768 39.6189 6.768C39.2829 6.768 39.0189 6.84 38.8269 6.984C38.6349 7.128 38.5229 7.368 38.4909 7.704H36.7869ZM40.7229 8.964C40.6509 9.028 40.5589 9.08 40.4469 9.12C40.3429 9.152 40.2269 9.18 40.0989 9.204C39.9789 9.228 39.8509 9.248 39.7149 9.264C39.5789 9.28 39.4429 9.3 39.3069 9.324C39.1789 9.348 39.0509 9.38 38.9229 9.42C38.8029 9.46 38.6949 9.516 38.5989 9.588C38.5109 9.652 38.4389 9.736 38.3829 9.84C38.3269 9.944 38.2989 10.076 38.2989 10.236C38.2989 10.388 38.3269 10.516 38.3829 10.62C38.4389 10.724 38.5149 10.808 38.6109 10.872C38.7069 10.928 38.8189 10.968 38.9469 10.992C39.0749 11.016 39.2069 11.028 39.3429 11.028C39.6789 11.028 39.9389 10.972 40.1229 10.86C40.3069 10.748 40.4429 10.616 40.5309 10.464C40.6189 10.304 40.6709 10.144 40.6869 9.984C40.7109 9.824 40.7229 9.696 40.7229 9.6V8.964ZM45.5016 4.836H43.7976V3.432H45.5016V4.836ZM43.7976 5.796H45.5016V12H43.7976V5.796Z" fill="white"/>
</svg>
