<svg width="45" height="9" viewBox="0 0 45 9" fill="none" xmlns="http://www.w3.org/2000/svg">
<path d="M0 2.364H1.62V3.228H1.656C1.872 2.868 2.152 2.608 2.496 2.448C2.84 2.28 3.192 2.196 3.552 2.196C4.008 2.196 4.38 2.26 4.668 2.388C4.964 2.508 5.196 2.68 5.364 2.904C5.532 3.12 5.648 3.388 5.712 3.708C5.784 4.02 5.82 4.368 5.82 4.752V8.568H4.116V5.064C4.116 4.552 4.036 4.172 3.876 3.924C3.716 3.668 3.432 3.54 3.024 3.54C2.56 3.54 2.224 3.68 2.016 3.96C1.808 4.232 1.704 4.684 1.704 5.316V8.568H0V2.364Z" fill="black"/>
<path d="M11.2893 4.8C11.2093 4.368 11.0653 4.04 10.8573 3.816C10.6573 3.592 10.3493 3.48 9.93328 3.48C9.66128 3.48 9.43328 3.528 9.24928 3.624C9.07328 3.712 8.92928 3.824 8.81728 3.96C8.71328 4.096 8.63728 4.24 8.58928 4.392C8.54928 4.544 8.52528 4.68 8.51728 4.8H11.2893ZM8.51728 5.88C8.54128 6.432 8.68128 6.832 8.93728 7.08C9.19328 7.328 9.56128 7.452 10.0413 7.452C10.3853 7.452 10.6813 7.368 10.9293 7.2C11.1773 7.024 11.3293 6.84 11.3853 6.648H12.8853C12.6453 7.392 12.2773 7.924 11.7813 8.244C11.2853 8.564 10.6853 8.724 9.98128 8.724C9.49328 8.724 9.05328 8.648 8.66128 8.496C8.26928 8.336 7.93728 8.112 7.66528 7.824C7.39328 7.536 7.18128 7.192 7.02928 6.792C6.88528 6.392 6.81328 5.952 6.81328 5.472C6.81328 5.008 6.88928 4.576 7.04128 4.176C7.19328 3.776 7.40928 3.432 7.68928 3.144C7.96928 2.848 8.30128 2.616 8.68528 2.448C9.07728 2.28 9.50928 2.196 9.98128 2.196C10.5093 2.196 10.9693 2.3 11.3613 2.508C11.7533 2.708 12.0733 2.98 12.3213 3.324C12.5773 3.668 12.7613 4.06 12.8733 4.5C12.9853 4.94 13.0253 5.4 12.9933 5.88H8.51728Z" fill="black"/>
<path d="M14.0039 2.364H15.6239V3.516H15.6479C15.7279 3.324 15.8359 3.148 15.9719 2.988C16.1079 2.82 16.2639 2.68 16.4399 2.568C16.6159 2.448 16.8039 2.356 17.0039 2.292C17.2039 2.228 17.4119 2.196 17.6279 2.196C17.7399 2.196 17.8639 2.216 17.9999 2.256V3.84C17.9199 3.824 17.8239 3.812 17.7119 3.804C17.5999 3.788 17.4919 3.78 17.3879 3.78C17.0759 3.78 16.8119 3.832 16.5959 3.936C16.3799 4.04 16.2039 4.184 16.0679 4.368C15.9399 4.544 15.8479 4.752 15.7919 4.992C15.7359 5.232 15.7079 5.492 15.7079 5.772V8.568H14.0039V2.364Z" fill="black"/>
<path d="M20.828 2.364H22.076V3.504H20.828V6.576C20.828 6.864 20.876 7.056 20.972 7.152C21.068 7.248 21.26 7.296 21.548 7.296C21.644 7.296 21.736 7.292 21.824 7.284C21.912 7.276 21.996 7.264 22.076 7.248V8.568C21.932 8.592 21.772 8.608 21.596 8.616C21.42 8.624 21.248 8.628 21.08 8.628C20.816 8.628 20.564 8.608 20.324 8.568C20.092 8.536 19.884 8.468 19.7 8.364C19.524 8.26 19.384 8.112 19.28 7.92C19.176 7.728 19.124 7.476 19.124 7.164V3.504H18.092V2.364H19.124V0.504H20.828V2.364Z" fill="black"/>
<path d="M24.6387 1.404H22.9347V0H24.6387V1.404ZM22.9347 2.364H24.6387V8.568H22.9347V2.364Z" fill="black"/>
<path d="M25.9085 4.272C25.9325 3.872 26.0325 3.54 26.2085 3.276C26.3845 3.012 26.6085 2.8 26.8805 2.64C27.1525 2.48 27.4565 2.368 27.7925 2.304C28.1365 2.232 28.4805 2.196 28.8245 2.196C29.1365 2.196 29.4525 2.22 29.7725 2.268C30.0925 2.308 30.3845 2.392 30.6485 2.52C30.9125 2.648 31.1285 2.828 31.2965 3.06C31.4645 3.284 31.5485 3.584 31.5485 3.96V7.188C31.5485 7.468 31.5645 7.736 31.5965 7.992C31.6285 8.248 31.6845 8.44 31.7645 8.568H30.0365C30.0045 8.472 29.9765 8.376 29.9525 8.28C29.9365 8.176 29.9245 8.072 29.9165 7.968C29.6445 8.248 29.3245 8.444 28.9565 8.556C28.5885 8.668 28.2125 8.724 27.8285 8.724C27.5325 8.724 27.2565 8.688 27.0005 8.616C26.7445 8.544 26.5205 8.432 26.3285 8.28C26.1365 8.128 25.9845 7.936 25.8725 7.704C25.7685 7.472 25.7165 7.196 25.7165 6.876C25.7165 6.524 25.7765 6.236 25.8965 6.012C26.0245 5.78 26.1845 5.596 26.3765 5.46C26.5765 5.324 26.8005 5.224 27.0485 5.16C27.3045 5.088 27.5605 5.032 27.8165 4.992C28.0725 4.952 28.3245 4.92 28.5725 4.896C28.8205 4.872 29.0405 4.836 29.2325 4.788C29.4245 4.74 29.5765 4.672 29.6885 4.584C29.8005 4.488 29.8525 4.352 29.8445 4.176C29.8445 3.992 29.8125 3.848 29.7485 3.744C29.6925 3.632 29.6125 3.548 29.5085 3.492C29.4125 3.428 29.2965 3.388 29.1605 3.372C29.0325 3.348 28.8925 3.336 28.7405 3.336C28.4045 3.336 28.1405 3.408 27.9485 3.552C27.7565 3.696 27.6445 3.936 27.6125 4.272H25.9085ZM29.8445 5.532C29.7725 5.596 29.6805 5.648 29.5685 5.688C29.4645 5.72 29.3485 5.748 29.2205 5.772C29.1005 5.796 28.9725 5.816 28.8365 5.832C28.7005 5.848 28.5645 5.868 28.4285 5.892C28.3005 5.916 28.1725 5.948 28.0445 5.988C27.9245 6.028 27.8165 6.084 27.7205 6.156C27.6325 6.22 27.5605 6.304 27.5045 6.408C27.4485 6.512 27.4205 6.644 27.4205 6.804C27.4205 6.956 27.4485 7.084 27.5045 7.188C27.5605 7.292 27.6365 7.376 27.7325 7.44C27.8285 7.496 27.9405 7.536 28.0685 7.56C28.1965 7.584 28.3285 7.596 28.4645 7.596C28.8005 7.596 29.0605 7.54 29.2445 7.428C29.4285 7.316 29.5645 7.184 29.6525 7.032C29.7405 6.872 29.7925 6.712 29.8085 6.552C29.8325 6.392 29.8445 6.264 29.8445 6.168V5.532Z" fill="black"/>
<path d="M32.9431 6.72H34.8271V8.568H32.9431V6.72Z" fill="black"/>
<path d="M36.1389 4.272C36.1629 3.872 36.2629 3.54 36.4389 3.276C36.6149 3.012 36.8389 2.8 37.1109 2.64C37.3829 2.48 37.6869 2.368 38.0229 2.304C38.3669 2.232 38.7109 2.196 39.0549 2.196C39.3669 2.196 39.6829 2.22 40.0029 2.268C40.3229 2.308 40.6149 2.392 40.8789 2.52C41.1429 2.648 41.3589 2.828 41.5269 3.06C41.6949 3.284 41.7789 3.584 41.7789 3.96V7.188C41.7789 7.468 41.7949 7.736 41.8269 7.992C41.8589 8.248 41.9149 8.44 41.9949 8.568H40.2669C40.2349 8.472 40.2069 8.376 40.1829 8.28C40.1669 8.176 40.1549 8.072 40.1469 7.968C39.8749 8.248 39.5549 8.444 39.1869 8.556C38.8189 8.668 38.4429 8.724 38.0589 8.724C37.7629 8.724 37.4869 8.688 37.2309 8.616C36.9749 8.544 36.7509 8.432 36.5589 8.28C36.3669 8.128 36.2149 7.936 36.1029 7.704C35.9989 7.472 35.9469 7.196 35.9469 6.876C35.9469 6.524 36.0069 6.236 36.1269 6.012C36.2549 5.78 36.4149 5.596 36.6069 5.46C36.8069 5.324 37.0309 5.224 37.2789 5.16C37.5349 5.088 37.7909 5.032 38.0469 4.992C38.3029 4.952 38.5549 4.92 38.8029 4.896C39.0509 4.872 39.2709 4.836 39.4629 4.788C39.6549 4.74 39.8069 4.672 39.9189 4.584C40.0309 4.488 40.0829 4.352 40.0749 4.176C40.0749 3.992 40.0429 3.848 39.9789 3.744C39.9229 3.632 39.8429 3.548 39.7389 3.492C39.6429 3.428 39.5269 3.388 39.3909 3.372C39.2629 3.348 39.1229 3.336 38.9709 3.336C38.6349 3.336 38.3709 3.408 38.1789 3.552C37.9869 3.696 37.8749 3.936 37.8429 4.272H36.1389ZM40.0749 5.532C40.0029 5.596 39.9109 5.648 39.7989 5.688C39.6949 5.72 39.5789 5.748 39.4509 5.772C39.3309 5.796 39.2029 5.816 39.0669 5.832C38.9309 5.848 38.7949 5.868 38.6589 5.892C38.5309 5.916 38.4029 5.948 38.2749 5.988C38.1549 6.028 38.0469 6.084 37.9509 6.156C37.8629 6.22 37.7909 6.304 37.7349 6.408C37.6789 6.512 37.6509 6.644 37.6509 6.804C37.6509 6.956 37.6789 7.084 37.7349 7.188C37.7909 7.292 37.8669 7.376 37.9629 7.44C38.0589 7.496 38.1709 7.536 38.2989 7.56C38.4269 7.584 38.5589 7.596 38.6949 7.596C39.0309 7.596 39.2909 7.54 39.4749 7.428C39.6589 7.316 39.7949 7.184 39.8829 7.032C39.9709 6.872 40.0229 6.712 40.0389 6.552C40.0629 6.392 40.0749 6.264 40.0749 6.168V5.532Z" fill="black"/>
<path d="M44.8536 1.404H43.1496V0H44.8536V1.404ZM43.1496 2.364H44.8536V8.568H43.1496V2.364Z" fill="black"/>
</svg>
