<svg xmlns="http://www.w3.org/2000/svg" viewBox="0 0 394 80" fill="none">
  <title>Nertia Logo</title>
  <g fill="#000">
    <!-- Simple wordmark-style logo: Nertia -->
    <path d="M24 64V16h10.4l24 31.2V16H70v48H59.6L35.9 32.8V64H24Z"/>
    <path d="M90 33.6V64H80V25.6h9.6v4.2c2.6-3.2 6.2-4.8 10.8-4.8 3.6 0 6.6 1 9 3.1 2.5 2.1 3.7 5.4 3.7 9.8V64h-10V39.2c0-2.2-.6-3.9-1.9-5-1.2-1.1-2.9-1.7-5-1.7-2.1 0-3.9.6-5.3 1.9-1.5 1.2-2.5 3.2-2.9 5.8Z"/>
    <path d="M150.8 65c-5 0-9.2-1.6-12.5-4.7-3.2-3.1-4.9-7-4.9-11.6 0-4.8 1.7-8.7 5-11.7 3.3-3.1 7.5-4.6 12.5-4.6 5 0 9.1 1.5 12.2 4.6 3.1 3 4.7 6.8 4.7 11.5 0 .8 0 1.6-.1 2.4h-24.1c.6 2 1.7 3.5 3.4 4.6 1.7 1 3.6 1.6 5.8 1.6 3.6 0 6.4-1.2 8.4-3.7l5.2 5.4c-3.7 3.9-8.5 5.8-14.6 5.8Zm-8.2-19h14.7c-.2-1.8-1-3.3-2.3-4.4-1.4-1.1-3.1-1.7-5.1-1.7-2 0-3.8.6-5.2 1.7-1.4 1.1-2.3 2.5-2.6 4.4Z"/>
    <path d="M184 64V25.6h9.6v4.5c2.7-3.6 6.5-5.4 11.2-5.4 1.5 0 2.9.2 4.2.6l-1.1 9.4c-1.5-.5-3.1-.8-4.8-.8-3.1 0-5.6 1-7.4 3-1.9 2-2.8 4.6-2.8 7.8V64H184Z"/>
    <path d="M254.7 65c-4.9 0-8.9-1.5-12-4.6-3.1-3-4.7-6.9-4.7-11.7 0-4.8 1.6-8.6 4.8-11.6 3.2-3.1 7.3-4.6 12.4-4.6 5.1 0 9.1 1.6 12.2 4.7 3.1 3.1 4.6 7 4.6 11.6 0 4.7-1.6 8.5-4.7 11.6-3.1 3-7.2 4.6-12.6 4.6Zm.1-8.4c2.4 0 4.4-.8 6-2.5 1.6-1.7 2.3-3.8 2.3-6.3s-.8-4.7-2.4-6.3c-1.6-1.7-3.6-2.5-6-2.5s-4.3.8-5.9 2.5c-1.5 1.6-2.3 3.7-2.3 6.3s.8 4.6 2.3 6.3c1.6 1.7 3.5 2.5 6 2.5Z"/>
    <path d="M296 64V16h10v48h-10Z"/>
  </g>
</svg>
